# 3ds Max Wavefront OBJ Exporter v0.97b - (c)2007 guruware
# File Created: 04.12.2016 13:13:21

mtllib catfishRawModel.mtl

#
# object catfish
#

v  -0.0000 -120.9114 -125.9027
v  -0.0000 -98.4046 -128.3246
v  1.6170 -104.9284 -101.6566
v  1.7843 -125.8205 -74.5302
v  0.8922 -135.8686 -100.9657
v  2.9884 -119.4671 -100.0173
v  10.6684 -102.8192 40.3260
v  17.3152 -117.2684 40.4389
v  16.3903 -112.5250 24.0696
v  18.8265 -118.5693 25.4996
v  17.3067 -123.0126 25.6519
v  3.5446 -110.0189 -64.3201
v  6.3547 -106.3943 -40.4612
v  6.9715 -118.3694 -62.8743
v  2.4102 -134.0477 -29.0628
v  11.2267 -118.1072 -37.3238
v  3.2340 -111.4523 -74.9888
v  5.9767 -118.0229 -74.1318
v  2.5892 -127.0308 -54.9645
v  2.6902 -126.2444 -63.4365
v  11.3149 -108.0753 54.4513
v  10.1264 -128.5029 53.0128
v  10.3119 -132.2808 42.3411
v  7.3852 -137.1888 -5.1799
v  14.9909 -117.7263 -10.9160
v  10.7410 -106.7261 -11.5711
v  16.8384 -113.9974 19.0448
v  24.5945 -113.2384 -0.3730
v  25.3452 -111.5083 6.4630
v  21.1642 -124.9500 -2.3474
v  -0.0000 -109.7900 -76.9037
v  -0.0000 -108.3208 -64.9840
v  0.0000 -99.8148 -11.4226
v  -0.0000 -102.2820 -40.9216
v  -0.0000 -100.6499 42.2728
v  -0.0000 -96.6409 22.3944
v  -0.0000 -103.2480 54.0207
v  -0.0000 -119.0849 84.7390
v  5.9894 -116.9680 81.2050
v  -0.0000 -111.8699 83.2428
v  -0.0000 -122.9390 80.6583
v  -0.0000 -134.4827 56.2193
v  -0.0000 -139.1727 43.2346
v  -0.0000 -139.4886 -0.3139
v  10.0310 -137.7777 25.4577
v  -0.0000 -141.1090 26.9621
v  2.5668 -139.6863 -4.8197
v  -0.0000 -147.9336 -42.3549
v  0.0000 -136.1439 -26.2928
v  -0.0000 -128.2387 -76.8306
v  -0.0000 -127.5086 -63.8073
v  -0.0000 -145.9167 -127.4012
v  -0.0000 -137.0777 -102.1159
v  -0.0000 -149.5292 -59.9441
v  -0.0000 -142.6555 -75.3648
v  -0.0000 -130.3508 -73.4086
v  14.4174 -117.4623 55.0076
v  6.8139 -122.8575 77.8676
v  1.5281 -97.0011 18.4637
v  0.0000 -98.6499 0.9886
v  11.6095 -103.6693 19.2836
v  0.0000 -152.8766 -25.8317
v  0.0000 -148.8181 -29.9421
v  0.0000 -150.9829 -18.2658
v  0.0000 -141.8566 -29.9110
v  -0.0000 -75.5278 -8.5975
v  -0.0000 -72.3871 -3.8547
v  -0.0000 -93.7308 -7.3869
v  -0.0000 -83.8606 -10.9951
v  1.4308 -105.1374 -52.3211
v  -0.0000 -107.2838 -61.3156
v  -0.0000 -101.2483 -59.6306
v  -0.0000 -106.9584 -67.9098
v  -0.0000 -103.4123 -68.1900
v  18.5182 -119.6615 19.6983
v  23.6099 -115.5076 -9.3392
v  20.2769 -128.4856 6.7625
v  0.0000 -137.1577 -18.9369
v  0.0000 -137.5781 -25.4667
v  -0.0000 -78.5187 7.8886
v  10.1575 -131.4481 70.5865
v  9.9660 -132.0503 71.8692
v  5.5524 -123.1919 76.1014
v  11.0328 -131.3598 71.5958
v  6.6377 -122.5015 75.2732
v  6.6377 -122.3682 76.7972
v  17.8917 -140.8113 66.2043
v  17.7640 -141.1739 66.9764
v  18.5016 -140.7581 66.8119
v  22.9054 -147.7902 60.9387
v  2.2740 -127.1167 76.9213
v  2.1484 -127.4460 77.6926
v  -0.0000 -122.2370 80.1974
v  2.8026 -126.9241 77.5558
v  -0.0000 -122.0239 78.5596
v  -0.0000 -121.0365 80.0501
v  4.8732 -134.1227 74.4688
v  -0.0000 -104.0973 -102.6141
v  -2.9884 -119.4671 -100.0173
v  -1.6170 -104.9284 -101.6566
v  -1.7843 -125.8205 -74.5302
v  -5.9767 -118.0229 -74.1318
v  -10.6684 -102.8192 40.3260
v  -16.3903 -112.5250 24.0696
v  -17.3152 -117.2684 40.4389
v  -18.8265 -118.5693 25.4996
v  -17.3067 -123.0126 25.6519
v  -3.5446 -110.0189 -64.3201
v  -6.9715 -118.3694 -62.8743
v  -6.3547 -106.3943 -40.4612
v  -2.4102 -134.0477 -29.0628
v  -11.2267 -118.1072 -37.3238
v  -3.2340 -111.4523 -74.9888
v  -2.6902 -126.2444 -63.4365
v  -2.5892 -127.0308 -54.9645
v  -11.3149 -108.0753 54.4513
v  -10.3119 -132.2808 42.3411
v  -10.1264 -128.5029 53.0128
v  -7.3852 -137.1888 -5.1799
v  -14.9909 -117.7263 -10.9160
v  -10.7410 -106.7261 -11.5711
v  -16.8384 -113.9974 19.0448
v  -24.5945 -113.2384 -0.3730
v  -23.6099 -115.5076 -9.3392
v  -21.1642 -124.9500 -2.3474
v  -5.9894 -116.9680 81.2050
v  -10.0310 -137.7777 25.4577
v  -2.5668 -139.6863 -4.8197
v  -0.8922 -135.8686 -100.9657
v  -14.4174 -117.4623 55.0076
v  -6.8139 -122.8575 77.8676
v  -1.5281 -97.0011 18.4637
v  -11.6095 -103.6693 19.2836
v  -1.4308 -105.1374 -52.3211
v  -18.5182 -119.6615 19.6983
v  -20.2769 -128.4856 6.7625
v  -25.3452 -111.5083 6.4630
v  -10.1575 -131.4481 70.5865
v  -6.6377 -122.5015 75.2732
v  -5.5524 -123.1919 76.1014
v  -11.0328 -131.3598 71.5958
v  -6.6377 -122.3682 76.7972
v  -9.9660 -132.0503 71.8692
v  -17.8917 -140.8113 66.2043
v  -18.5016 -140.7581 66.8119
v  -17.7640 -141.1739 66.9764
v  -22.9054 -147.7902 60.9387
v  -2.2740 -127.1167 76.9213
v  -2.8026 -126.9241 77.5558
v  -2.1484 -127.4460 77.6926
v  -4.8732 -134.1227 74.4688
# 151 vertices

vn 0.0000 -0.1478 -0.9890
vn 0.0000 0.6137 -0.7896
vn 0.8071 0.5853 0.0777
vn 0.8427 -0.5384 -0.0038
vn 0.8921 -0.4373 0.1134
vn 0.9973 -0.0264 -0.0685
vn 0.6308 0.7615 0.1488
vn 0.9899 0.0157 0.1409
vn 0.9057 0.4239 0.0064
vn 0.9922 0.0671 0.1046
vn 0.9011 -0.4245 0.0884
vn 0.7390 0.6531 -0.1654
vn 0.7691 0.6249 -0.1338
vn 0.9896 -0.0815 -0.1184
vn 0.8590 -0.5115 -0.0207
vn 0.9833 -0.1019 -0.1509
vn 0.7746 0.6296 -0.0595
vn 0.9940 -0.0428 -0.1004
vn 0.9312 -0.3526 -0.0927
vn 0.6968 -0.7137 -0.0718
vn 0.7207 0.6403 0.2658
vn 0.7638 -0.6018 0.2333
vn 0.7401 -0.6426 0.1984
vn 0.6907 -0.7124 -0.1237
vn 0.9878 -0.0376 -0.1513
vn 0.7775 0.6199 -0.1062
vn 0.9276 0.3666 -0.0718
vn 0.4234 0.8661 -0.2657
vn 0.4581 0.8850 0.0838
vn -0.1135 -0.7115 -0.6935
vn 0.0000 0.9944 0.1058
vn 0.0000 0.9789 -0.2046
vn 0.0000 0.9960 -0.0895
vn 0.0000 0.9935 -0.1140
vn -0.0000 0.9782 0.2076
vn 0.0000 0.9780 0.2085
vn 0.0000 0.9588 0.2842
vn 0.0000 -0.3312 0.9436
vn 0.7553 0.1110 0.6459
vn 0.0000 0.6852 0.7284
vn -0.0000 -0.7504 0.6609
vn -0.0000 -0.9423 0.3347
vn 0.0000 -0.9740 0.2266
vn 0.0000 -0.9928 0.1196
vn 0.6466 -0.7597 0.0687
vn 0.0000 -0.9950 0.1002
vn 0.6464 -0.7400 0.1858
vn -0.0000 -0.9941 0.1082
vn -0.0000 -1.0000 -0.0029
vn 0.0000 -0.9626 0.2709
vn 0.0000 -0.4957 -0.8685
vn 0.0000 -0.6841 -0.7294
vn -0.0000 -0.9440 0.3300
vn 0.0000 -0.9854 -0.1705
vn -0.0000 -0.5105 -0.8599
vn 0.0000 0.4905 -0.8714
vn 0.9723 -0.0262 0.2323
vn 0.6592 -0.5409 0.5224
vn 0.8074 0.5789 0.1135
vn 0.0000 0.9740 -0.2264
vn 0.7367 0.6751 -0.0381
vn 0.0000 -0.9097 -0.4154
vn 0.0000 -0.3760 -0.9266
vn -0.0000 -0.9575 0.2883
vn -0.0000 0.3096 -0.9509
vn -0.0000 0.5966 -0.8025
vn -0.0000 0.9792 -0.2031
vn 0.0000 -0.5301 -0.8479
vn 0.0000 0.0348 -0.9994
vn 0.8093 0.5781 -0.1040
vn -0.0000 0.8136 -0.5815
vn 0.0000 0.9841 -0.1778
vn 0.0000 -0.5804 -0.8143
vn -0.0000 0.4697 -0.8828
vn 0.0701 0.7734 -0.6301
vn 0.0996 0.2692 -0.9579
vn -0.0661 -0.9967 -0.0463
vn -0.0000 -0.9174 -0.3980
vn 0.0000 0.8290 -0.5592
vn -0.0000 0.8511 0.5250
vn -0.3544 0.1849 -0.9166
vn -0.5204 -0.6572 0.5452
vn -0.7976 -0.4854 0.3580
vn 0.8828 0.3404 0.3237
vn 0.3856 0.6042 -0.6973
vn 0.6006 -0.0920 0.7942
vn -0.3578 0.2760 -0.8921
vn -0.4097 -0.7185 0.5620
vn 0.8631 0.3441 0.3697
vn 0.4767 -0.6757 -0.5622
vn -0.3231 0.2078 -0.9233
vn -0.5564 -0.5117 0.6546
vn -0.0000 -0.2335 0.9724
vn 0.9417 0.2255 0.2499
vn 0.0000 0.4972 -0.8676
vn -0.0000 0.9031 0.4295
vn 0.3109 -0.8764 -0.3677
vn -0.0000 0.9764 0.2162
vn -0.9973 -0.0264 -0.0685
vn -0.8071 0.5853 0.0777
vn -0.8427 -0.5384 -0.0038
vn -0.9940 -0.0428 -0.1004
vn -0.6308 0.7615 0.1488
vn -0.9057 0.4239 0.0064
vn -0.9899 0.0157 0.1409
vn -0.9922 0.0671 0.1046
vn -0.9011 -0.4245 0.0884
vn -0.7390 0.6531 -0.1654
vn -0.9896 -0.0815 -0.1184
vn -0.7691 0.6249 -0.1338
vn -0.8590 -0.5115 -0.0207
vn -0.9833 -0.1019 -0.1509
vn -0.7746 0.6296 -0.0595
vn -0.6968 -0.7137 -0.0718
vn -0.9312 -0.3526 -0.0927
vn -0.7207 0.6403 0.2658
vn -0.7401 -0.6426 0.1984
vn -0.7638 -0.6018 0.2333
vn -0.6907 -0.7124 -0.1237
vn -0.9878 -0.0376 -0.1513
vn -0.7775 0.6199 -0.1062
vn -0.9276 0.3666 -0.0718
vn -0.4234 0.8661 -0.2657
vn -0.0996 0.2692 -0.9579
vn 0.1135 -0.7115 -0.6935
vn -0.7553 0.1110 0.6459
vn -0.6466 -0.7597 0.0687
vn -0.6464 -0.7400 0.1858
vn -0.8921 -0.4373 0.1134
vn -0.9723 -0.0262 0.2323
vn -0.6592 -0.5409 0.5224
vn -0.8074 0.5789 0.1135
vn -0.7367 0.6751 -0.0381
vn -0.8093 0.5781 -0.1040
vn -0.0701 0.7734 -0.6301
vn 0.0661 -0.9967 -0.0463
vn -0.4581 0.8850 0.0838
vn 0.3544 0.1849 -0.9166
vn -0.3856 0.6042 -0.6973
vn 0.7976 -0.4854 0.3580
vn -0.8828 0.3404 0.3237
vn -0.6006 -0.0920 0.7942
vn 0.5204 -0.6572 0.5452
vn 0.3578 0.2760 -0.8921
vn -0.8631 0.3441 0.3697
vn 0.4097 -0.7185 0.5620
vn -0.4766 -0.6757 -0.5623
vn 0.3231 0.2078 -0.9233
vn -0.9417 0.2255 0.2499
vn 0.5564 -0.5117 0.6546
vn -0.3108 -0.8764 -0.3678
# 151 vertex normals

vt 0.8462 0.9190 0.0000
vt 0.7466 0.9903 0.0000
vt 0.7071 0.8400 0.0000
vt 0.7528 0.6354 0.0000
vt 0.8620 0.7553 0.0000
vt 0.7756 0.7893 0.0000
vt 0.1972 0.2731 0.0000
vt 0.2525 0.2081 0.0000
vt 0.3080 0.2796 0.0000
vt 0.3215 0.2496 0.0000
vt 0.3344 0.2321 0.0000
vt 0.6349 0.6427 0.0000
vt 0.5466 0.5568 0.0000
vt 0.6738 0.6008 0.0000
vt 0.6301 0.3895 0.0000
vt 0.5846 0.4966 0.0000
vt 0.6676 0.6896 0.0000
vt 0.7049 0.6595 0.0000
vt 0.6911 0.5350 0.0000
vt 0.7243 0.5891 0.0000
vt 0.1561 0.2026 0.0000
vt 0.2325 0.1043 0.0000
vt 0.2926 0.1254 0.0000
vt 0.5247 0.2757 0.0000
vt 0.4704 0.3867 0.0000
vt 0.4288 0.4378 0.0000
vt 0.3321 0.2888 0.0000
vt 0.8747 0.3791 0.0000
vt 0.9380 0.4380 0.0000
vt 0.7354 0.4369 0.0000
vt 0.6513 0.7106 0.0000
vt 0.6237 0.6626 0.0000
vt 0.3808 0.4900 0.0000
vt 0.5203 0.5918 0.0000
vt 0.1465 0.3074 0.0000
vt 0.2298 0.3878 0.0000
vt 0.1148 0.2608 0.0000
vt 0.0359 0.0568 0.0000
vt 0.0614 0.0835 0.0000
vt 0.0146 0.1038 0.0000
vt 0.0722 0.0463 0.0000
vt 0.2590 0.0475 0.0000
vt 0.3082 0.0651 0.0000
vt 0.5379 0.2075 0.0000
vt 0.3873 0.1631 0.0000
vt 0.3668 0.0860 0.0000
vt 0.5497 0.2517 0.0000
vt 0.6872 0.1024 0.0000
vt 0.6136 0.2391 0.0000
vt 0.5826 0.2211 0.0000
vt 0.7888 0.6419 0.0000
vt 0.7392 0.5717 0.0000
vt 0.9712 0.8753 0.0000
vt 0.8800 0.7586 0.0000
vt 0.8276 0.2577 0.0000
vt 0.8405 0.0618 0.0000
vt 0.9822 0.1015 0.0000
vt 0.9886 0.2166 0.0000
vt 0.9123 0.2550 0.0000
vt 0.1860 0.1654 0.0000
vt 0.0928 0.0734 0.0000
vt 0.2499 0.3931 0.0000
vt 0.3256 0.4528 0.0000
vt 0.2895 0.3394 0.0000
vt 0.6340 0.3606 0.0000
vt 0.0808 0.9886 0.0000
vt 0.2957 0.7828 0.0000
vt 0.3535 0.8204 0.0000
vt 0.2112 0.8218 0.0000
vt 0.3701 0.9018 0.0000
vt 0.0467 0.3784 0.0000
vt 0.3213 0.7615 0.0000
vt 0.3672 0.6990 0.0000
vt 0.0742 0.7331 0.0000
vt 0.2063 0.7886 0.0000
vt 0.0123 0.6161 0.0000
vt 0.5701 0.6130 0.0000
vt 0.6048 0.6461 0.0000
vt 0.6596 0.0890 0.0000
vt 0.5629 0.1065 0.0000
vt 0.4993 0.0581 0.0000
vt 0.4130 0.1004 0.0000
vt 0.4157 0.0667 0.0000
vt 0.4742 0.1147 0.0000
vt 0.3478 0.2646 0.0000
vt 0.5701 0.9190 0.0000
vt 0.3919 0.7381 0.0000
vt 0.3800 0.6315 0.0000
vt 0.6356 0.9655 0.0000
vt 0.5159 0.6602 0.0000
vt 0.5983 0.7383 0.0000
vt 0.9736 0.6957 0.0000
vt 0.9261 0.7278 0.0000
vt 0.7561 0.5547 0.0000
vt 0.3127 0.5047 -17.3549
vt 0.4000 0.6000 -14.8263
vt 0.4201 0.5801 -13.5298
vt 0.2546 0.9867 0.0000
vt 0.3290 0.9628 0.0000
vt 0.0189 0.9882 0.0000
vt 0.0580 0.3219 0.0000
vt 0.2920 0.5348 0.0000
vt 0.5810 0.9875 0.0000
vt 0.4010 0.8189 0.0000
vt 0.5711 0.0519 1.0000
vt 0.5711 0.0403 1.0000
vt 0.7355 0.0403 1.0000
vt 0.5711 0.0287 1.0000
vt 0.5711 0.0171 1.0000
vt 0.7355 0.0171 1.0000
vt 0.7355 0.0287 1.0000
vt 0.4066 0.0519 1.0000
vt 0.4066 0.0403 1.0000
vt 0.4066 0.0287 1.0000
vt 0.4066 0.0171 1.0000
vt 0.2422 0.0345 1.0000
vt 0.6990 0.8505 0.0000
vt 0.7917 0.3017 0.0000
vt 0.7355 0.0519 1.0000
# 119 texture coords

g catfish
usemtl Material__28
s 1
f 1/1/1 2/2/2 3/3/3 
f 4/4/4 5/5/5 6/6/6 
f 7/7/7 8/8/8 9/9/9 
f 10/10/10 8/8/8 11/11/11 
f 12/12/12 13/13/13 14/14/14 
f 15/15/15 14/14/14 16/16/16 
f 17/17/17 12/12/12 18/18/18 
f 14/14/14 19/19/19 20/20/20 
f 7/7/7 21/21/21 8/8/8 
f 8/8/8 22/22/22 23/23/23 
f 24/24/24 15/15/15 25/25/25 
f 25/25/25 16/16/16 26/26/26 
f 26/26/26 27/27/27 25/25/25 
f 28/28/28 29/29/29 30/30/30 
f 15/15/15 19/19/19 14/14/14 
f 31/31/31 17/17/17 3/3/3 
f 32/32/32 17/17/17 31/31/31 
f 33/33/33 13/13/13 34/34/34 
f 35/35/35 7/7/7 36/36/36 
f 37/37/37 7/7/7 35/35/35 
f 21/21/21 7/7/7 37/37/37 
f 38/38/38 39/39/39 40/40/40 
f 41/41/41 39/39/39 38/38/38 
f 42/42/42 23/23/23 22/22/22 
f 23/23/23 42/42/42 43/43/43 
f 44/44/44 45/45/45 46/46/46 
f 47/47/47 24/24/24 44/44/44 
f 48/48/48 15/49/15 49/50/49 
f 50/51/50 4/4/4 51/52/51 
f 52/53/52 5/5/5 53/54/53 
f 19/55/19 15/49/15 48/48/48 
f 19/55/19 54/56/54 55/57/55 
f 19/55/19 56/58/56 51/59/51 
f 19/55/19 55/57/55 56/58/56 
f 37/37/37 40/40/40 21/21/21 
f 21/21/21 39/39/39 57/60/57 
f 57/60/57 58/61/58 22/22/22 
f 22/22/22 58/61/58 42/42/42 
f 59/62/59 26/26/26 60/63/60 
f 59/62/59 36/36/36 61/64/61 
f 59/62/59 61/64/61 26/26/26 
f 47/47/47 49/65/49 15/15/15 
f 47/47/47 15/15/15 24/24/24 
f 47/66/47 62/67/62 63/68/63 
f 47/66/47 64/69/64 62/67/62 
f 47/66/47 63/68/63 65/70/65 
f 19/55/19 48/48/48 54/56/54 
f 59/71/59 66/72/66 67/73/67 
f 59/71/59 68/74/68 69/75/69 
f 59/71/59 60/76/60 68/74/68 
f 59/71/59 69/75/69 66/72/66 
f 70/77/70 12/12/12 71/78/71 
f 34/79/34 70/80/70 72/81/72 
f 70/80/70 73/82/73 74/83/74 
f 70/80/70 74/83/74 72/81/72 
f 70/80/70 71/84/71 73/82/73 
f 11/11/11 24/24/24 75/85/75 
f 75/86/75 28/87/28 76/88/76 
f 11/89/11 30/90/30 77/91/77 
f 11/89/11 76/88/76 30/90/30 
f 8/8/8 23/23/23 11/11/11 
f 13/13/13 16/16/16 14/14/14 
f 12/12/12 14/14/14 18/18/18 
f 21/21/21 57/60/57 8/8/8 
f 8/8/8 57/60/57 22/22/22 
f 15/15/15 16/16/16 25/25/25 
f 16/16/16 13/13/13 26/26/26 
f 10/92/10 11/93/11 77/94/77 
f 29/29/29 10/92/10 77/94/77 
f 29/29/29 77/94/77 30/30/30 
f 32/32/32 12/12/12 17/17/17 
f 33/33/33 26/26/26 13/13/13 
f 7/7/7 61/64/61 36/36/36 
f 41/41/41 58/61/58 39/39/39 
f 46/46/46 45/45/45 23/23/23 
f 44/44/44 24/24/24 45/45/45 
f 20/20/20 19/19/19 51/52/51 
f 57/60/57 39/39/39 58/61/58 
f 58/61/58 41/41/41 42/42/42 
f 26/26/26 33/33/33 60/63/60 
f 47/95/47 78/96/78 49/97/49 
f 78/98/78 47/66/47 79/99/79 
f 47/66/47 44/100/44 64/69/64 
f 36/101/36 59/71/59 80/102/80 
f 70/77/70 34/34/34 13/13/13 
f 70/77/70 13/13/13 12/12/12 
f 12/12/12 32/32/32 71/78/71 
f 24/24/24 25/25/25 75/85/75 
f 75/86/75 10/103/10 29/104/29 
f 11/89/11 75/86/75 76/88/76 
f 59/71/59 67/73/67 80/102/80 
f 47/66/47 65/70/65 79/99/79 
f 23/23/23 45/45/45 11/11/11 
f 81/105/81 82/106/82 83/107/83 
f 84/108/84 81/109/81 85/110/85 
f 82/106/82 84/108/84 86/111/86 
f 87/112/87 88/113/88 82/106/82 
f 89/114/89 87/115/87 81/109/81 
f 88/113/88 89/114/89 84/108/84 
f 88/113/88 87/112/87 90/116/90 
f 87/115/87 89/114/89 90/116/90 
f 89/114/89 88/113/88 90/116/90 
f 91/112/91 92/113/92 93/106/93 
f 94/114/94 91/115/91 95/109/95 
f 92/113/92 94/114/94 96/108/96 
f 92/113/92 91/112/91 97/116/97 
f 91/115/91 94/114/94 97/116/97 
f 94/114/94 92/113/92 97/116/97 
f 11/11/11 45/45/45 24/24/24 
f 75/85/75 25/25/25 27/27/27 
f 75/86/75 29/104/29 28/87/28 
f 9/9/9 10/10/10 27/27/27 
f 27/27/27 10/10/10 75/85/75 
f 27/27/27 61/64/61 9/9/9 
f 9/9/9 61/64/61 7/7/7 
f 8/8/8 10/10/10 9/9/9 
f 40/40/40 39/39/39 21/21/21 
f 26/26/26 61/64/61 27/27/27 
f 17/17/17 18/18/18 6/6/6 
f 5/5/5 52/53/52 1/1/1 
f 3/3/3 2/2/2 98/117/98 
f 50/51/50 53/54/53 5/5/5 
f 51/52/51 4/4/4 20/20/20 
f 20/20/20 4/4/4 18/18/18 
f 1/1/1 99/6/99 100/3/100 
f 101/4/101 102/18/102 99/6/99 
f 103/7/103 104/9/104 105/8/105 
f 106/10/106 107/11/107 105/8/105 
f 108/12/108 109/14/109 110/13/110 
f 111/15/111 112/16/112 109/14/109 
f 113/17/113 102/18/102 108/12/108 
f 109/14/109 114/20/114 115/19/115 
f 103/7/103 105/8/105 116/21/116 
f 105/8/105 117/23/117 118/22/118 
f 119/24/119 120/25/120 111/15/111 
f 120/25/120 121/26/121 112/16/112 
f 121/26/121 120/25/120 122/27/122 
f 123/28/123 124/118/124 125/30/125 
f 111/15/111 109/14/109 115/19/115 
f 31/31/31 98/117/98 100/3/100 
f 32/32/32 31/31/31 113/17/113 
f 33/33/33 34/34/34 110/13/110 
f 35/35/35 36/36/36 103/7/103 
f 37/37/37 35/35/35 103/7/103 
f 116/21/116 37/37/37 103/7/103 
f 38/38/38 40/40/40 126/39/126 
f 41/41/41 38/38/38 126/39/126 
f 42/42/42 118/22/118 117/23/117 
f 43/43/43 42/42/42 117/23/117 
f 44/44/44 46/46/46 127/45/127 
f 128/47/128 44/44/44 119/24/119 
f 48/48/48 49/50/49 111/49/111 
f 50/51/50 51/52/51 101/4/101 
f 52/53/52 53/54/53 129/5/129 
f 115/55/115 48/48/48 111/49/111 
f 115/55/115 55/57/55 54/56/54 
f 115/55/115 51/59/51 56/58/56 
f 115/55/115 56/58/56 55/57/55 
f 37/37/37 116/21/116 40/40/40 
f 116/21/116 130/60/130 126/39/126 
f 130/60/130 118/22/118 131/61/131 
f 118/22/118 42/42/42 131/61/131 
f 132/62/132 60/63/60 121/26/121 
f 132/62/132 133/64/133 36/36/36 
f 132/62/132 121/26/121 133/64/133 
f 128/47/128 111/15/111 49/65/49 
f 128/47/128 119/24/119 111/15/111 
f 128/66/128 63/68/63 62/67/62 
f 128/66/128 62/67/62 64/69/64 
f 128/66/128 65/70/65 63/68/63 
f 115/55/115 54/56/54 48/48/48 
f 132/71/132 67/73/67 66/72/66 
f 132/71/132 69/75/69 68/74/68 
f 132/71/132 68/74/68 60/76/60 
f 132/71/132 66/72/66 69/75/69 
f 134/77/134 71/78/71 108/12/108 
f 34/79/34 72/81/72 134/80/134 
f 134/80/134 74/83/74 73/82/73 
f 134/80/134 72/81/72 74/83/74 
f 134/80/134 73/82/73 71/84/71 
f 107/11/107 135/85/135 119/24/119 
f 135/86/135 124/88/124 123/87/123 
f 107/89/107 136/91/136 125/90/125 
f 107/89/107 125/90/125 124/88/124 
f 105/8/105 107/11/107 117/23/117 
f 110/13/110 109/14/109 112/16/112 
f 108/12/108 102/18/102 109/14/109 
f 116/21/116 105/8/105 130/60/130 
f 105/8/105 118/22/118 130/60/130 
f 111/15/111 120/25/120 112/16/112 
f 112/16/112 121/26/121 110/13/110 
f 106/92/106 136/94/136 107/93/107 
f 137/29/137 136/94/136 106/92/106 
f 137/29/137 125/30/125 136/94/136 
f 32/32/32 113/17/113 108/12/108 
f 33/33/33 110/13/110 121/26/121 
f 103/7/103 36/36/36 133/64/133 
f 41/41/41 126/39/126 131/61/131 
f 46/46/46 117/23/117 127/45/127 
f 44/44/44 127/45/127 119/24/119 
f 114/20/114 51/52/51 115/19/115 
f 130/60/130 131/61/131 126/39/126 
f 131/61/131 42/42/42 41/41/41 
f 121/26/121 60/63/60 33/33/33 
f 128/95/128 49/97/49 78/96/78 
f 78/98/78 79/99/79 128/66/128 
f 128/66/128 64/69/64 44/100/44 
f 36/101/36 80/102/80 132/71/132 
f 134/77/134 110/13/110 34/34/34 
f 134/77/134 108/12/108 110/13/110 
f 108/12/108 71/78/71 32/32/32 
f 119/24/119 135/85/135 120/25/120 
f 135/86/135 137/104/137 106/103/106 
f 107/89/107 124/88/124 135/86/135 
f 132/71/132 80/102/80 67/73/67 
f 128/66/128 79/99/79 65/70/65 
f 117/23/117 107/11/107 127/45/127 
f 138/105/138 139/119/139 140/107/140 
f 141/108/141 142/111/142 139/110/139 
f 143/106/143 140/107/140 142/111/142 
f 144/112/144 138/105/138 143/106/143 
f 145/114/145 141/108/141 138/109/138 
f 146/113/146 143/106/143 141/108/141 
f 146/113/146 147/116/147 144/112/144 
f 144/115/144 147/116/147 145/114/145 
f 145/114/145 147/116/147 146/113/146 
f 148/112/148 95/105/95 93/106/93 
f 149/114/149 96/108/96 95/109/95 
f 150/113/150 93/106/93 96/108/96 
f 150/113/150 151/116/151 148/112/148 
f 148/115/148 151/116/151 149/114/149 
f 149/114/149 151/116/151 150/113/150 
f 107/11/107 119/24/119 127/45/127 
f 135/85/135 122/27/122 120/25/120 
f 135/86/135 123/87/123 137/104/137 
f 104/9/104 122/27/122 106/10/106 
f 122/27/122 135/85/135 106/10/106 
f 122/27/122 104/9/104 133/64/133 
f 104/9/104 103/7/103 133/64/133 
f 105/8/105 104/9/104 106/10/106 
f 40/40/40 116/21/116 126/39/126 
f 121/26/121 122/27/122 133/64/133 
f 113/17/113 100/3/100 99/6/99 
f 129/5/129 99/6/99 1/1/1 
f 100/3/100 98/117/98 2/2/2 
f 50/51/50 101/4/101 129/5/129 
f 51/52/51 114/20/114 101/4/101 
f 114/20/114 109/14/109 102/18/102 
f 3/3/3 6/6/6 1/1/1 
f 6/6/6 18/18/18 4/4/4 
f 30/30/30 76/118/76 28/28/28 
f 3/3/3 98/117/98 31/31/31 
f 83/107/83 85/119/85 81/105/81 
f 85/110/85 86/111/86 84/108/84 
f 86/111/86 83/107/83 82/106/82 
f 82/106/82 81/105/81 87/112/87 
f 81/109/81 84/108/84 89/114/89 
f 84/108/84 82/106/82 88/113/88 
f 93/106/93 95/105/95 91/112/91 
f 95/109/95 96/108/96 94/114/94 
f 96/108/96 93/106/93 92/113/92 
f 6/6/6 3/3/3 17/17/17 
f 1/1/1 6/6/6 5/5/5 
f 5/5/5 4/4/4 50/51/50 
f 18/18/18 14/14/14 20/20/20 
f 100/3/100 2/2/2 1/1/1 
f 99/6/99 129/5/129 101/4/101 
f 125/30/125 137/29/137 123/28/123 
f 100/3/100 113/17/113 31/31/31 
f 140/107/140 143/106/143 138/105/138 
f 139/110/139 138/109/138 141/108/141 
f 142/111/142 141/108/141 143/106/143 
f 143/106/143 146/113/146 144/112/144 
f 138/109/138 144/115/144 145/114/145 
f 141/108/141 145/114/145 146/113/146 
f 93/106/93 150/113/150 148/112/148 
f 95/109/95 148/115/148 149/114/149 
f 96/108/96 149/114/149 150/113/150 
f 99/6/99 102/18/102 113/17/113 
f 1/1/1 52/53/52 129/5/129 
f 129/5/129 53/54/53 50/51/50 
f 102/18/102 101/4/101 114/20/114 
f 117/23/117 46/46/46 43/43/43 
f 43/43/43 46/46/46 23/23/23 
# 284 faces

